<svg xmlns="http://www.w3.org/2000/svg" xmlns:xlink="http://www.w3.org/1999/xlink" width="529" zoomAndPan="magnify" viewBox="0 0 396.75 396.749985" height="529" preserveAspectRatio="xMidYMid meet" version="1.0"><defs><clipPath id="0d2656457a"><path d="M 0.953125 0.539062 L 371.519531 0.539062 L 371.519531 328.171875 L 0.953125 328.171875 Z M 0.953125 0.539062 " clip-rule="nonzero"/></clipPath><clipPath id="7075b21b96"><path d="M 1.011719 0.546875 L 370.144531 0.546875 L 370.144531 328 L 1.011719 328 Z M 1.011719 0.546875 " clip-rule="nonzero"/></clipPath><clipPath id="46f67958d6"><path d="M 97.042969 183 L 275.351562 183 L 275.351562 298.578125 L 97.042969 298.578125 Z M 97.042969 183 " clip-rule="nonzero"/></clipPath><clipPath id="59132dae30"><path d="M 173 117.140625 L 202 117.140625 L 202 204 L 173 204 Z M 173 117.140625 " clip-rule="nonzero"/></clipPath><clipPath id="09fa75f640"><path d="M 315.941406 171.132812 L 337.136719 171.132812 L 337.136719 208.132812 L 315.941406 208.132812 Z M 315.941406 171.132812 " clip-rule="nonzero"/></clipPath><clipPath id="1f114ba98d"><path d="M 0.941406 0.132812 L 22.136719 0.132812 L 22.136719 37.132812 L 0.941406 37.132812 Z M 0.941406 0.132812 " clip-rule="nonzero"/></clipPath><clipPath id="d1563805c5"><rect x="0" width="23" y="0" height="38"/></clipPath><clipPath id="90745ae399"><path d="M 32 172 L 56 172 L 56 210 L 32 210 Z M 32 172 " clip-rule="nonzero"/></clipPath><clipPath id="57ae81c6c1"><path d="M 33.660156 172.234375 L 55.476562 172.800781 L 54.507812 209.789062 L 32.695312 209.21875 Z M 33.660156 172.234375 " clip-rule="nonzero"/></clipPath><clipPath id="51748130fe"><path d="M 0.613281 0.03125 L 23.636719 0.03125 L 23.636719 37.925781 L 0.613281 37.925781 Z M 0.613281 0.03125 " clip-rule="nonzero"/></clipPath><clipPath id="2b548a3b66"><path d="M 1.660156 0.234375 L 23.476562 0.800781 L 22.507812 37.789062 L 0.695312 37.21875 Z M 1.660156 0.234375 " clip-rule="nonzero"/></clipPath><clipPath id="163a72ad9e"><rect x="0" width="24" y="0" height="38"/></clipPath><clipPath id="1fa743a216"><path d="M 12 167 L 55 167 L 55 209 L 12 209 Z M 12 167 " clip-rule="nonzero"/></clipPath><clipPath id="3d913fc95a"><path d="M 38.960938 167.3125 L 54.21875 182.910156 L 27.769531 208.78125 L 12.511719 193.183594 Z M 38.960938 167.3125 " clip-rule="nonzero"/></clipPath><clipPath id="230b268d30"><path d="M 0.464844 0.234375 L 42.4375 0.234375 L 42.4375 41.96875 L 0.464844 41.96875 Z M 0.464844 0.234375 " clip-rule="nonzero"/></clipPath><clipPath id="fc354d6a44"><path d="M 26.960938 0.3125 L 42.21875 15.910156 L 15.769531 41.78125 L 0.511719 26.183594 Z M 26.960938 0.3125 " clip-rule="nonzero"/></clipPath><clipPath id="6793ebf214"><rect x="0" width="43" y="0" height="42"/></clipPath><clipPath id="b6ec2f41ed"><path d="M 318 167 L 361 167 L 361 209 L 318 209 Z M 318 167 " clip-rule="nonzero"/></clipPath><clipPath id="17982a836a"><path d="M 318.871094 182.976562 L 333.972656 167.230469 L 360.679688 192.839844 L 345.574219 208.589844 Z M 318.871094 182.976562 " clip-rule="nonzero"/></clipPath><clipPath id="9a018ccb95"><path d="M 0.75 0 L 42.726562 0 L 42.726562 41.726562 L 0.75 41.726562 Z M 0.75 0 " clip-rule="nonzero"/></clipPath><clipPath id="f27bb3d95f"><path d="M 0.871094 15.976562 L 15.972656 0.230469 L 42.679688 25.839844 L 27.574219 41.589844 Z M 0.871094 15.976562 " clip-rule="nonzero"/></clipPath><clipPath id="73d0913fc1"><rect x="0" width="43" y="0" height="42"/></clipPath><clipPath id="622102c7d3"><rect x="0" width="372" y="0" height="329"/></clipPath><clipPath id="26a0ee4546"><rect x="0" width="372" y="0" height="329"/></clipPath></defs><g transform="matrix(1, 0, 0, 1, 12, 34)"><g clip-path="url(#26a0ee4546)"><g clip-path="url(#0d2656457a)"><g transform="matrix(1, 0, 0, 1, 0.000000000000001776, 0)"><g clip-path="url(#622102c7d3)"><g clip-path="url(#7075b21b96)"><path fill="#8b5e3c" d="M 318.949219 132.757812 L 318.949219 42.371094 L 241.113281 42.371094 L 241.113281 50.191406 L 182.402344 0.546875 L 1.167969 185.578125 L 54.609375 187.59375 L 54.609375 327.933594 L 315.851562 327.933594 L 315.851562 185.113281 L 371.308594 185.113281 Z M 301.910156 171.25 L 301.910156 314.070312 L 68.550781 314.070312 L 68.550781 174.191406 L 33.152344 172.875 L 183.253906 19.523438 L 255.054688 80.167969 L 255.054688 56.234375 L 305.007812 56.234375 L 305.007812 138.488281 L 337.695312 171.171875 L 301.910156 171.171875 Z M 301.910156 171.25 " fill-opacity="1" fill-rule="nonzero"/></g><g clip-path="url(#46f67958d6)"><path fill="#8b5e3c" d="M 275.003906 218.648438 C 273.617188 211.886719 266.621094 206.78125 258.183594 206.585938 C 254.417969 206.503906 250.632812 207.039062 246.714844 207.316406 C 246.613281 207.320312 246.527344 207.246094 246.515625 207.144531 C 246.40625 205.9375 246.164062 204.5 246.226562 203.074219 C 246.511719 197.023438 242.914062 193.050781 236.417969 190.347656 C 230.257812 187.78125 223.683594 186.328125 217 185.105469 C 214.882812 184.71875 212.734375 184.464844 210.566406 184.152344 C 210.480469 184.140625 210.394531 184.195312 210.363281 184.277344 C 209.667969 186.289062 209.015625 188.148438 208.351562 190.054688 C 208.320312 190.160156 208.382812 190.273438 208.492188 190.296875 C 208.769531 190.355469 208.996094 190.40625 209.226562 190.445312 C 213.605469 191.21875 218.015625 191.886719 222.347656 192.800781 C 226.75 193.726562 231.070312 194.914062 234.773438 197.164062 C 237.636719 198.902344 237.722656 200.726562 234.8125 202.355469 C 232.84375 203.460938 230.671875 204.402344 228.441406 205.121094 C 219.703125 207.9375 210.488281 209.246094 201.199219 209.984375 C 181.21875 211.566406 161.335938 211.101562 141.757812 207.09375 C 136.8125 206.082031 131.894531 204.921875 127.757812 202.378906 C 124.84375 200.59375 124.78125 198.5625 127.902344 197.078125 C 131.210938 195.503906 134.777344 194.167969 138.425781 193.199219 C 146.105469 191.160156 154.066406 190.109375 162.121094 189.503906 C 162.640625 189.464844 163.492188 189.074219 163.546875 188.769531 C 163.871094 186.976562 164.023438 185.160156 164.230469 183.285156 C 164.242188 183.179688 164.15625 183.082031 164.046875 183.082031 C 163.398438 183.078125 163.015625 183.0625 162.640625 183.089844 C 154.101562 183.667969 145.6875 184.851562 137.4375 186.710938 C 131.757812 187.992188 126.238281 189.644531 121.566406 192.695312 C 119.21875 194.230469 117.261719 196 116.808594 198.554688 C 115.699219 204.824219 115.203125 211.121094 115.777344 217.4375 C 116.957031 230.382812 121.535156 242.480469 129.984375 253.578125 C 130.171875 253.824219 130.304688 254.101562 130.449219 254.375 C 130.503906 254.480469 130.441406 254.613281 130.328125 254.640625 C 127.679688 255.285156 125.113281 255.828125 122.625 256.542969 C 115.878906 258.492188 109.246094 260.652344 103.683594 264.460938 C 95.039062 270.386719 94.800781 277.917969 103.144531 284.128906 C 108.183594 287.886719 114.292969 290.183594 120.667969 292.007812 C 133.4375 295.652344 146.679688 297.460938 160.132812 298.367188 C 164.296875 298.652344 168.460938 298.863281 172.628906 299.113281 C 172.632812 299.113281 172.632812 299.113281 172.636719 299.113281 L 190.101562 299.113281 C 190.113281 299.113281 190.121094 299.113281 190.125 299.113281 C 190.707031 299.03125 191.285156 298.917969 191.871094 298.878906 C 198.09375 298.46875 204.339844 298.226562 210.539062 297.636719 C 221.394531 296.601562 232.089844 294.859375 242.363281 291.757812 C 248.640625 289.867188 254.636719 287.519531 259.566406 283.734375 C 266.988281 278.03125 267.007812 270.964844 259.570312 265.265625 C 253.84375 260.875 246.695312 258.550781 239.390625 256.511719 C 237.140625 255.882812 234.832031 255.390625 232.535156 254.835938 C 232.414062 254.804688 232.355469 254.675781 232.414062 254.566406 C 233.773438 251.960938 233.863281 251.960938 237.238281 251.8125 C 238.144531 251.773438 239.050781 251.679688 239.953125 251.589844 C 251.109375 250.460938 260.664062 246.863281 267.757812 239.636719 C 273.789062 233.464844 276.617188 226.523438 275.003906 218.648438 Z M 247.972656 267.230469 C 250.269531 268.261719 252.480469 269.566406 254.351562 271.054688 C 257.265625 273.375 257.101562 275.90625 254.230469 278.292969 C 250.675781 281.246094 246.125 282.902344 241.480469 284.359375 C 229.820312 288.027344 217.648438 289.960938 205.230469 290.859375 C 197.207031 291.4375 189.152344 291.734375 181.109375 292.152344 C 181.007812 292.15625 180.921875 292.078125 180.917969 291.976562 C 180.910156 291.878906 180.828125 291.800781 180.730469 291.804688 C 167.023438 292.007812 153.460938 290.988281 140.039062 288.8125 C 131.410156 287.410156 122.902344 285.589844 115.070312 282.242188 C 112.589844 281.183594 110.210938 279.816406 108.167969 278.257812 C 105.019531 275.851562 105.246094 273.230469 108.324219 270.699219 C 111.554688 268.046875 115.628906 266.476562 119.796875 265.175781 C 124.636719 263.660156 129.675781 262.554688 134.601562 261.203125 C 135.976562 260.820312 136.785156 261.136719 137.707031 261.980469 C 144.308594 268.007812 152.097656 272.761719 161.464844 275.632812 C 176.320312 280.191406 191.039062 279.753906 205.429688 274.316406 C 213.046875 271.4375 219.550781 267.285156 225.039062 262.148438 C 226.070312 261.1875 226.984375 261.046875 228.472656 261.335938 C 235.28125 262.644531 241.855469 264.488281 247.972656 267.230469 Z M 226.796875 247.953125 C 220.367188 257.324219 211.5 264.742188 198.980469 268.816406 C 183.660156 273.796875 169.015625 272.359375 155.332031 265.042969 C 143.585938 258.757812 136.109375 249.746094 131.003906 239.34375 C 126.441406 230.054688 124.101562 220.421875 124.46875 210.40625 C 124.484375 209.996094 124.519531 209.582031 124.546875 209.152344 C 124.558594 209.035156 124.675781 208.953125 124.789062 208.988281 C 128.34375 210.152344 131.65625 211.464844 135.144531 212.304688 C 144.339844 214.519531 153.761719 215.832031 163.316406 216.578125 C 174.214844 217.429688 185.132812 217.53125 196.027344 216.808594 C 208.546875 215.976562 220.960938 214.542969 232.726562 210.699219 C 234.273438 210.191406 235.75 209.550781 237.410156 208.894531 C 237.519531 208.851562 237.636719 208.921875 237.65625 209.039062 C 237.726562 209.464844 237.800781 209.816406 237.816406 210.167969 C 238.328125 223.554688 234.851562 236.210938 226.796875 247.953125 Z M 256.761719 238.554688 C 252.050781 241.851562 246.4375 243.605469 240.324219 244.367188 C 239.992188 244.40625 239.648438 244.386719 239.261719 244.378906 C 239.132812 244.371094 239.042969 244.242188 239.09375 244.125 C 240.417969 240.839844 241.769531 237.695312 242.945312 234.503906 C 245.09375 228.667969 246.351562 222.699219 246.589844 216.605469 C 246.628906 215.601562 247.007812 215.046875 248.21875 214.859375 C 250.824219 214.453125 253.410156 213.746094 256.027344 213.660156 C 262.453125 213.457031 266.457031 216.722656 266.59375 221.933594 C 266.785156 228.8125 263.019531 234.1875 256.761719 238.554688 Z M 256.761719 238.554688 " fill-opacity="1" fill-rule="nonzero"/></g><g clip-path="url(#59132dae30)"><path fill="#8b5e3c" d="M 183.671875 158.390625 C 188.949219 165.75 192.320312 173.542969 191.40625 182.117188 C 190.894531 186.859375 189.566406 191.554688 188.394531 196.242188 C 187.785156 198.675781 186.84375 201.050781 186 203.445312 C 186.417969 203.699219 186.335938 203.648438 186.753906 203.902344 C 188.84375 201.660156 191.042969 199.480469 192.925781 197.132812 C 202.605469 185.066406 204.152344 172.460938 196.125 159.441406 C 193.625 155.378906 190.714844 151.449219 187.628906 147.660156 C 181.636719 140.289062 179.613281 132.367188 181.644531 123.730469 C 182.136719 121.65625 182.550781 119.566406 182.988281 117.480469 C 182.582031 117.296875 182.65625 117.332031 182.246094 117.148438 C 180.804688 119.125 179.261719 121.066406 178.042969 123.128906 C 173.300781 131.167969 172.058594 139.421875 176.695312 147.765625 C 178.730469 151.421875 181.183594 154.929688 183.671875 158.390625 Z M 183.671875 158.390625 " fill-opacity="1" fill-rule="nonzero"/></g><path fill="#8b5e3c" d="M 166.738281 163.964844 C 172.921875 170.691406 175.382812 178.179688 174.113281 186.480469 C 173.855469 188.171875 173.648438 189.867188 173.429688 191.558594 C 173.9375 191.753906 173.855469 191.722656 174.363281 191.910156 C 175.929688 189.582031 177.636719 187.308594 178.921875 184.882812 C 182.601562 177.929688 182.441406 171.074219 177.339844 164.546875 C 175.238281 161.859375 173.058594 159.210938 170.777344 156.625 C 167.75 153.191406 166.171875 149.441406 166.457031 145.21875 C 166.566406 143.542969 166.722656 141.875 166.867188 140.199219 C 166.882812 140.015625 166.648438 139.925781 166.539062 140.070312 C 165.5625 141.320312 164.738281 142.613281 164.042969 143.957031 C 162.074219 147.785156 160.578125 151.679688 161.683594 155.914062 C 162.476562 158.972656 164.5 161.53125 166.738281 163.964844 Z M 166.738281 163.964844 " fill-opacity="1" fill-rule="nonzero"/><g clip-path="url(#09fa75f640)"><g transform="matrix(1, 0, 0, 1, 315, 171)"><g clip-path="url(#d1563805c5)"><g clip-path="url(#1f114ba98d)"><path fill="#efe5d1" d="M 0.941406 0.132812 L 22.136719 0.132812 L 22.136719 37.140625 L 0.941406 37.140625 Z M 0.941406 0.132812 " fill-opacity="1" fill-rule="nonzero"/></g></g></g></g><g clip-path="url(#90745ae399)"><g clip-path="url(#57ae81c6c1)"><g transform="matrix(1, 0, 0, 1, 32, 172)"><g clip-path="url(#163a72ad9e)"><g clip-path="url(#51748130fe)"><g clip-path="url(#2b548a3b66)"><path fill="#efe5d1" d="M 1.660156 0.234375 L 23.476562 0.800781 L 22.507812 37.78125 L 0.695312 37.214844 Z M 1.660156 0.234375 " fill-opacity="1" fill-rule="nonzero"/></g></g></g></g></g></g><g clip-path="url(#1fa743a216)"><g clip-path="url(#3d913fc95a)"><g transform="matrix(1, 0, 0, 1, 12, 167)"><g clip-path="url(#6793ebf214)"><g clip-path="url(#230b268d30)"><g clip-path="url(#fc354d6a44)"><path fill="#efe5d1" d="M 26.960938 0.3125 L 42.21875 15.910156 L 15.773438 41.777344 L 0.515625 26.175781 Z M 26.960938 0.3125 " fill-opacity="1" fill-rule="nonzero"/></g></g></g></g></g></g><g clip-path="url(#b6ec2f41ed)"><g clip-path="url(#17982a836a)"><g transform="matrix(1, 0, 0, 1, 318, 167)"><g clip-path="url(#73d0913fc1)"><g clip-path="url(#9a018ccb95)"><g clip-path="url(#f27bb3d95f)"><path fill="#efe5d1" d="M 0.871094 15.976562 L 15.972656 0.230469 L 42.671875 25.835938 L 27.566406 41.582031 Z M 0.871094 15.976562 " fill-opacity="1" fill-rule="nonzero"/></g></g></g></g></g></g></g></g></g></g></g></svg>